<svg width="123" height="22" viewBox="0 0 123 22" fill="none" xmlns="http://www.w3.org/2000/svg">
<path d="M15.992 0.199999V11.744C15.992 14.272 15.288 16.208 13.88 17.552C12.472 18.912 10.528 19.592 8.048 19.592C6.624 19.592 5.32 19.392 4.136 18.992C2.952 18.608 1.944 18.056 1.112 17.336L2.624 14.456C4.144 15.688 5.92 16.304 7.952 16.304C9.36 16.304 10.4 15.952 11.072 15.248C11.76 14.528 12.104 13.424 12.104 11.936V10.904C10.984 12.28 9.4 12.968 7.352 12.968C5.224 12.968 3.584 12.368 2.432 11.168C1.296 9.952 0.728 8.208 0.728 5.936V0.199999H4.616V5.696C4.616 7.008 4.928 8 5.552 8.672C6.176 9.344 7.056 9.68 8.192 9.68C9.392 9.68 10.344 9.328 11.048 8.624C11.752 7.92 12.104 6.856 12.104 5.432V0.199999H15.992ZM25.7158 17.192C24.3558 17.192 23.1318 16.912 22.0438 16.352C20.9718 15.776 20.1318 14.984 19.5238 13.976C18.9158 12.968 18.6118 11.824 18.6118 10.544C18.6118 9.264 18.9158 8.12 19.5238 7.112C20.1318 6.104 20.9718 5.32 22.0438 4.76C23.1318 4.184 24.3558 3.896 25.7158 3.896C27.0758 3.896 28.2918 4.184 29.3638 4.76C30.4358 5.32 31.2758 6.104 31.8838 7.112C32.4918 8.12 32.7958 9.264 32.7958 10.544C32.7958 11.824 32.4918 12.968 31.8838 13.976C31.2758 14.984 30.4358 15.776 29.3638 16.352C28.2918 16.912 27.0758 17.192 25.7158 17.192ZM25.7158 14.12C26.6758 14.12 27.4598 13.8 28.0678 13.16C28.6918 12.504 29.0038 11.632 29.0038 10.544C29.0038 9.456 28.6918 8.592 28.0678 7.952C27.4598 7.296 26.6758 6.968 25.7158 6.968C24.7558 6.968 23.9638 7.296 23.3398 7.952C22.7158 8.592 22.4038 9.456 22.4038 10.544C22.4038 11.632 22.7158 12.504 23.3398 13.16C23.9638 13.8 24.7558 14.12 25.7158 14.12ZM48.3063 4.088V17H44.7543V15.464C44.2583 16.024 43.6663 16.456 42.9783 16.76C42.2903 17.048 41.5463 17.192 40.7463 17.192C39.0503 17.192 37.7063 16.704 36.7143 15.728C35.7223 14.752 35.2263 13.304 35.2263 11.384V4.088H38.9703V10.832C38.9703 12.912 39.8423 13.952 41.5863 13.952C42.4823 13.952 43.2023 13.664 43.7463 13.088C44.2903 12.496 44.5623 11.624 44.5623 10.472V4.088H48.3063ZM55.3509 5.792C55.7989 5.168 56.3989 4.696 57.1509 4.376C57.9189 4.056 58.7989 3.896 59.7909 3.896V7.352C59.3749 7.32 59.0949 7.304 58.9509 7.304C57.8789 7.304 57.0389 7.608 56.4309 8.216C55.8229 8.808 55.5189 9.704 55.5189 10.904V17H51.7749V4.088H55.3509V5.792Z" fill="#202020"/>
<path d="M62.3748 0.199999H66.2628V13.832H74.6868V17H62.3748V0.199999ZM82.6454 17.192C81.2854 17.192 80.0614 16.912 78.9734 16.352C77.9014 15.776 77.0614 14.984 76.4534 13.976C75.8454 12.968 75.5414 11.824 75.5414 10.544C75.5414 9.264 75.8454 8.12 76.4534 7.112C77.0614 6.104 77.9014 5.32 78.9734 4.76C80.0614 4.184 81.2854 3.896 82.6454 3.896C84.0054 3.896 85.2214 4.184 86.2934 4.76C87.3654 5.32 88.2054 6.104 88.8134 7.112C89.4214 8.12 89.7254 9.264 89.7254 10.544C89.7254 11.824 89.4214 12.968 88.8134 13.976C88.2054 14.984 87.3654 15.776 86.2934 16.352C85.2214 16.912 84.0054 17.192 82.6454 17.192ZM82.6454 14.12C83.6054 14.12 84.3894 13.8 84.9974 13.16C85.6214 12.504 85.9334 11.632 85.9334 10.544C85.9334 9.456 85.6214 8.592 84.9974 7.952C84.3894 7.296 83.6054 6.968 82.6454 6.968C81.6854 6.968 80.8934 7.296 80.2694 7.952C79.6454 8.592 79.3334 9.456 79.3334 10.544C79.3334 11.632 79.6454 12.504 80.2694 13.16C80.8934 13.8 81.6854 14.12 82.6454 14.12ZM105.548 4.088V14.84C105.548 17.208 104.932 18.968 103.7 20.12C102.468 21.272 100.668 21.848 98.3 21.848C97.052 21.848 95.868 21.696 94.748 21.392C93.628 21.088 92.7 20.648 91.964 20.072L93.452 17.384C93.996 17.832 94.684 18.184 95.516 18.44C96.348 18.712 97.18 18.848 98.012 18.848C99.308 18.848 100.26 18.552 100.868 17.96C101.492 17.384 101.804 16.504 101.804 15.32V14.768C100.828 15.84 99.468 16.376 97.724 16.376C96.54 16.376 95.452 16.12 94.46 15.608C93.484 15.08 92.708 14.344 92.132 13.4C91.556 12.456 91.268 11.368 91.268 10.136C91.268 8.904 91.556 7.816 92.132 6.872C92.708 5.928 93.484 5.2 94.46 4.688C95.452 4.16 96.54 3.896 97.724 3.896C99.596 3.896 101.02 4.512 101.996 5.744V4.088H105.548ZM98.468 13.304C99.46 13.304 100.268 13.016 100.892 12.44C101.532 11.848 101.852 11.08 101.852 10.136C101.852 9.192 101.532 8.432 100.892 7.856C100.268 7.264 99.46 6.968 98.468 6.968C97.476 6.968 96.66 7.264 96.02 7.856C95.38 8.432 95.06 9.192 95.06 10.136C95.06 11.08 95.38 11.848 96.02 12.44C96.66 13.016 97.476 13.304 98.468 13.304ZM115.177 17.192C113.817 17.192 112.593 16.912 111.505 16.352C110.433 15.776 109.593 14.984 108.985 13.976C108.377 12.968 108.073 11.824 108.073 10.544C108.073 9.264 108.377 8.12 108.985 7.112C109.593 6.104 110.433 5.32 111.505 4.76C112.593 4.184 113.817 3.896 115.177 3.896C116.537 3.896 117.753 4.184 118.825 4.76C119.897 5.32 120.737 6.104 121.345 7.112C121.953 8.12 122.257 9.264 122.257 10.544C122.257 11.824 121.953 12.968 121.345 13.976C120.737 14.984 119.897 15.776 118.825 16.352C117.753 16.912 116.537 17.192 115.177 17.192ZM115.177 14.12C116.137 14.12 116.921 13.8 117.529 13.16C118.153 12.504 118.465 11.632 118.465 10.544C118.465 9.456 118.153 8.592 117.529 7.952C116.921 7.296 116.137 6.968 115.177 6.968C114.217 6.968 113.425 7.296 112.801 7.952C112.177 8.592 111.865 9.456 111.865 10.544C111.865 11.632 112.177 12.504 112.801 13.16C113.425 13.8 114.217 14.12 115.177 14.12Z" fill="#4068CF"/>
</svg>
